<svg xmlns="http://www.w3.org/2000/svg" viewBox="0 0 512 512"><path fill="#ff5959" d="M460.322 121.315c9.79 1.1 16.17 9.95 15.79 19.76l-8.3 215.89-46.49-.9-291.55-232.23 2.6-21.13c1.19-9.77 9.99-16.88 19.77-15.79l308.18 34.4z"/><path fill="#66e6ff" d="M412.492 155.405c9.78 1.09 16.16 9.94 15.79 19.75l-8.31 215.91-37.59-.9-302.43-215.91 4.58-37.46c1.19-9.77 9.99-16.88 19.77-15.8l308.19 34.41z"/><path fill="#5c5c99" d="m42.682 422.015-.14.18c-4.06-3.29-6.67-8.32-6.67-13.94v-216.07c0-9.86 8.06-17.93 17.92-17.93h310.68c9.86 0 17.91 8.07 17.91 17.93v215.07c0 9.87-8.05 17.94-17.91 17.94h-41.65v-1.25l-280.14-1.93z"/><path fill="#e1e6f0" d="M316.432 218.335c13.62 0 24.65 11.04 24.65 24.64s-11.03 24.65-24.65 24.65c-13.6 0-24.64-11.05-24.64-24.65s11.04-24.64 24.64-24.64z"/><path fill="#f3f5f9" d="M221.542 423.945v1.25H53.792c-4.25 0-8.17-1.5-11.25-4l.14-.18 81.48-176.66 97.38 179.59z"/><path fill="#e1e6f0" d="M322.822 423.945v1.25h-101.28v-1.25l-35.95-66.3.03-.02 46.64-81.25z"/></svg>