<svg xmlns="http://www.w3.org/2000/svg" enable-background="new 0 0 1080 1080" viewBox="0 0 1080 1080"><circle cx="349.6" cy="422.8" r="59.5" fill="#ffac9c" stroke="#000" stroke-linecap="round" stroke-linejoin="round" stroke-miterlimit="10" stroke-width="10"/><circle cx="448.2" cy="389.2" r="55.4" fill="#ffac9c" stroke="#000" stroke-linecap="round" stroke-linejoin="round" stroke-miterlimit="10" stroke-width="10"/><circle cx="540.2" cy="368.8" r="36" fill="#ffac9c" stroke="#000" stroke-linecap="round" stroke-linejoin="round" stroke-miterlimit="10" stroke-width="10"/><circle cx="576.2" cy="312.4" r="47" fill="#ffac9c" stroke="#000" stroke-linecap="round" stroke-linejoin="round" stroke-miterlimit="10" stroke-width="10"/><circle cx="635.2" cy="357.8" r="29" fill="#ffac9c" stroke="#000" stroke-linecap="round" stroke-linejoin="round" stroke-miterlimit="10" stroke-width="10"/><path fill="#ff653c" stroke="#000" stroke-linecap="round" stroke-linejoin="round" stroke-miterlimit="10" stroke-width="10" d="M428.3,550c0,0-117.3-93.4-193-17.9S165.7,696.9,116.4,698c-49.3,1.1-83.3,37.8-63.4,78.8
	c27.2,55.9,164.7,29.7,202.4-36.4S288,527.5,379.6,553.9C471.2,580.3,428.3,550,428.3,550z"/><ellipse cx="128.1" cy="783.9" fill="#f2f2f2" stroke="#000" stroke-linecap="round" stroke-linejoin="round" stroke-miterlimit="10" stroke-width="7" rx="61.7" ry="45.8" transform="rotate(-5.498 128.072 783.86)"/><ellipse cx="128.4" cy="795" fill="#8e52ff" stroke="#000" stroke-linecap="round" stroke-linejoin="round" stroke-miterlimit="10" stroke-width="7" rx="40.6" ry="30.1" transform="rotate(-5.498 128.422 795.003)"/><ellipse cx="243.5" cy="691.6" fill="#f2f2f2" stroke="#000" stroke-linecap="round" stroke-linejoin="round" stroke-miterlimit="10" stroke-width="7" rx="54.6" ry="40.6" transform="rotate(-59.581 243.544 691.607)"/><ellipse cx="251.7" cy="697.1" fill="#8e52ff" stroke="#000" stroke-linecap="round" stroke-linejoin="round" stroke-miterlimit="10" stroke-width="7" rx="35.9" ry="26.7" transform="rotate(-59.581 251.72 697.146)"/><ellipse cx="290.1" cy="564.1" fill="#f2f2f2" stroke="#000" stroke-linecap="round" stroke-linejoin="round" stroke-miterlimit="10" stroke-width="7" rx="50.3" ry="37.4" transform="rotate(-52.533 290.07 564.098)"/><ellipse cx="296.9" cy="570.1" fill="#8e52ff" stroke="#000" stroke-linecap="round" stroke-linejoin="round" stroke-miterlimit="10" stroke-width="7" rx="33.1" ry="24.6" transform="rotate(-52.533 296.913 570.082)"/><path fill="#ff653c" stroke="#000" stroke-linecap="round" stroke-linejoin="round" stroke-miterlimit="10" stroke-width="10" d="M483.2,528c0,0,36.8-176.2-53.6-250.5s-171.8,10.6-218.1-22.5s-7.1-131.8,98.4-140.4S590.8,153.3,558,404.1
	C525.1,654.8,483.2,528,483.2,528z"/><ellipse cx="275.6" cy="146.7" fill="#f2f2f2" stroke="#000" stroke-linecap="round" stroke-linejoin="round" stroke-miterlimit="10" stroke-width="7" rx="50.9" ry="40.4" transform="rotate(-7.961 275.536 146.711)"/><ellipse cx="273.6" cy="134.9" fill="#8e52ff" stroke="#000" stroke-linecap="round" stroke-linejoin="round" stroke-miterlimit="10" stroke-width="7" rx="38.7" ry="24.6" transform="rotate(-7.961 273.556 134.908)"/><ellipse cx="443.2" cy="170.7" fill="#f2f2f2" stroke="#000" stroke-linecap="round" stroke-linejoin="round" stroke-miterlimit="10" stroke-width="7" rx="40.4" ry="50.9" transform="rotate(-59.581 443.249 170.685)"/><ellipse cx="449" cy="160.2" fill="#8e52ff" stroke="#000" stroke-linecap="round" stroke-linejoin="round" stroke-miterlimit="10" stroke-width="7" rx="24.6" ry="38.7" transform="rotate(-59.581 449.027 160.2)"/><ellipse cx="528.6" cy="308.9" fill="#f2f2f2" stroke="#000" stroke-linecap="round" stroke-linejoin="round" stroke-miterlimit="10" stroke-width="7" rx="40.4" ry="50.9" transform="rotate(-11.058 528.676 308.932)"/><ellipse cx="540.3" cy="306.3" fill="#8e52ff" stroke="#000" stroke-linecap="round" stroke-linejoin="round" stroke-miterlimit="10" stroke-width="7" rx="24.6" ry="38.7" transform="rotate(-11.058 540.36 306.316)"/><path fill="#f9d225" stroke="#000" stroke-linecap="round" stroke-linejoin="round" stroke-miterlimit="10" stroke-width="10" d="M560.3,429.2c0,0-13.8-252.3,225.7-249.3c239.5,3,206.9,184.4,80.7,180.6c-67.3-2-97.2-58.9-150.8-45.6
	c-53.6,13.3-73.1,145.8-73.1,145.8S560.2,520.5,560.3,429.2z"/><ellipse cx="626.1" cy="291.6" fill="#f2f2f2" stroke="#000" stroke-linecap="round" stroke-linejoin="round" stroke-miterlimit="10" stroke-width="7" rx="50.9" ry="41.4" transform="rotate(-32.371 626.073 291.567)"/><ellipse cx="621.7" cy="283.3" fill="#8e52ff" stroke="#000" stroke-linecap="round" stroke-linejoin="round" stroke-miterlimit="10" stroke-width="7" rx="28" ry="22.8" transform="rotate(-26.201 621.724 283.362)"/><ellipse cx="764.7" cy="203.8" fill="#f2f2f2" stroke="#000" stroke-linecap="round" stroke-linejoin="round" stroke-miterlimit="10" stroke-width="7" rx="41.4" ry="50.9" transform="rotate(-76.149 764.664 203.775)"/><ellipse cx="767.5" cy="194.9" fill="#8e52ff" stroke="#000" stroke-linecap="round" stroke-linejoin="round" stroke-miterlimit="10" stroke-width="7" rx="22.8" ry="28" transform="rotate(-69.983 767.508 194.853)"/><ellipse cx="910.1" cy="264.6" fill="#f2f2f2" stroke="#000" stroke-linecap="round" stroke-linejoin="round" stroke-miterlimit="10" stroke-width="7" rx="41.4" ry="50.9" transform="rotate(-76.149 910.162 264.566)"/><ellipse cx="913" cy="255.6" fill="#8e52ff" stroke="#000" stroke-linecap="round" stroke-linejoin="round" stroke-miterlimit="10" stroke-width="7" rx="22.8" ry="28" transform="rotate(-69.983 913.001 255.64)"/><path fill="#00df00" stroke="#000" stroke-linecap="round" stroke-linejoin="round" stroke-miterlimit="10" stroke-width="10" d="M528.6,483.5c0,0,0-81.8-135.4-71c-101.9,8.1-159.5-46.9-154.1-154.1c5.4-107.2-166.3-88.4-155.5,73.7
	c9.4,140.7,146.1,151.5,203.7,156.8s88.5,5.3,118,30.8C434.7,545.2,528.6,483.5,528.6,483.5z"/><ellipse cx="131.7" cy="234.4" fill="#f2f2f2" stroke="#000" stroke-linecap="round" stroke-linejoin="round" stroke-miterlimit="10" stroke-width="7" rx="53.5" ry="43.4" transform="rotate(-59.581 131.743 234.375)"/><ellipse cx="125.7" cy="225.8" fill="#8e52ff" stroke="#000" stroke-linecap="round" stroke-linejoin="round" stroke-miterlimit="10" stroke-width="7" rx="30.8" ry="25" transform="rotate(-59.581 125.742 225.836)"/><ellipse cx="175.4" cy="369.7" fill="#f2f2f2" stroke="#000" stroke-linecap="round" stroke-linejoin="round" stroke-miterlimit="10" stroke-width="7" rx="40.5" ry="50" transform="rotate(-35.259 175.364 369.682)"/><ellipse cx="165.8" cy="371.5" fill="#8e52ff" stroke="#000" stroke-linecap="round" stroke-linejoin="round" stroke-miterlimit="10" stroke-width="7" rx="23.3" ry="28.8" transform="rotate(-35.259 165.791 371.504)"/><ellipse cx="290.1" cy="444.6" fill="#f2f2f2" stroke="#000" stroke-linecap="round" stroke-linejoin="round" stroke-miterlimit="10" stroke-width="7" rx="40.3" ry="49.8" transform="rotate(-69.323 290.074 444.58)"/><ellipse cx="283.2" cy="451.4" fill="#8e52ff" stroke="#000" stroke-linecap="round" stroke-linejoin="round" stroke-miterlimit="10" stroke-width="7" rx="23.2" ry="28.6" transform="rotate(-69.323 283.199 451.417)"/><ellipse cx="401.7" cy="455.5" fill="#f2f2f2" stroke="#000" stroke-linecap="round" stroke-linejoin="round" stroke-miterlimit="10" stroke-width="7" rx="33.9" ry="41.8" transform="matrix(.04951 -.9988 .9988 .04951 -73.078 834.116)"/><ellipse cx="398" cy="462.7" fill="#8e52ff" stroke="#000" stroke-linecap="round" stroke-linejoin="round" stroke-miterlimit="10" stroke-width="7" rx="19.5" ry="24.1" transform="matrix(.04951 -.9988 .9988 .04951 -83.872 837.265)"/><ellipse cx="586.8" cy="482.3" fill="#f2f2f2" stroke="#000" stroke-linecap="round" stroke-linejoin="round" stroke-miterlimit="10" stroke-width="10" rx="20.8" ry="22.8"/><path fill="none" stroke="#000" stroke-linecap="round" stroke-linejoin="round" stroke-miterlimit="10" stroke-width="10" d="M741.4 667.8c4.8 4.2 9.6 8.4 14.4 12.7M435 795.6c-1.1 5.7-.8 11.5.7 17.1"/><path fill="#f9d225" stroke="#000" stroke-linecap="round" stroke-linejoin="round" stroke-miterlimit="10" stroke-width="10" d="M555.3,488.4c0,0,19.6-94.6,119.9-105.9s104.4,47.9,168.5,55.5s151.4-47.2,179.1-14.1
	c27.7,33.1,9.1,141.5-94.3,151.6c-189.1,18.4-196.4-135.3-251-119.8L555.3,488.4z"/><ellipse cx="829.8" cy="484.1" fill="#f2f2f2" stroke="#000" stroke-linecap="round" stroke-linejoin="round" stroke-miterlimit="10" stroke-width="7" rx="46.3" ry="50.4" transform="rotate(-69.323 829.76 484.096)"/><ellipse cx="842.5" cy="460" fill="#8e52ff" stroke="#000" stroke-linecap="round" stroke-linejoin="round" stroke-miterlimit="10" stroke-width="7" rx="18.4" ry="33.6" transform="rotate(-64.906 842.495 460.015)"/><ellipse cx="986.5" cy="491.9" fill="#f2f2f2" stroke="#000" stroke-linecap="round" stroke-linejoin="round" stroke-miterlimit="10" stroke-width="7" rx="49.2" ry="53.5" transform="rotate(-69.323 986.432 491.863)"/><ellipse cx="1000" cy="466.3" fill="#8e52ff" stroke="#000" stroke-linecap="round" stroke-linejoin="round" stroke-miterlimit="10" stroke-width="7" rx="19.6" ry="35.7" transform="rotate(-64.906 999.971 466.27)"/><ellipse cx="704.8" cy="415.7" fill="#f2f2f2" stroke="#000" stroke-linecap="round" stroke-linejoin="round" stroke-miterlimit="10" stroke-width="7" rx="40.4" ry="43.9" transform="rotate(-77.28 704.76 415.646)"/><ellipse cx="712.8" cy="393.3" fill="#8e52ff" stroke="#000" stroke-linecap="round" stroke-linejoin="round" stroke-miterlimit="10" stroke-width="7" rx="16.1" ry="29.3" transform="rotate(-72.866 712.836 393.33)"/><circle cx="83.1" cy="560.1" r="49.9" fill="#ffac9c" stroke="#000" stroke-linecap="round" stroke-linejoin="round" stroke-miterlimit="10" stroke-width="10"/><path fill="none" stroke="#fff" stroke-linecap="round" stroke-linejoin="round" stroke-miterlimit="10" stroke-width="7" d="M99.6,529.5c6.9,4.9,13.8,11.9,17.2,21.6"/><circle cx="964.1" cy="752.3" r="53.9" fill="#ffac9c" stroke="#000" stroke-linecap="round" stroke-linejoin="round" stroke-miterlimit="10" stroke-width="10"/><path fill="none" stroke="#fff" stroke-linecap="round" stroke-linejoin="round" stroke-miterlimit="10" stroke-width="7" d="M1000.6,761c-3.2,8.5-8.6,17.8-17.7,23.9"/><circle cx="599.4" cy="87" r="36.7" fill="#ffac9c" stroke="#000" stroke-linecap="round" stroke-linejoin="round" stroke-miterlimit="10" stroke-width="10"/><path fill="none" stroke="#fff" stroke-linecap="round" stroke-linejoin="round" stroke-miterlimit="10" stroke-width="7" d="M432.5,349.7c0,0,19.2-5.8,31.3,4.9"/><g><circle cx="523.9" cy="492.4" r="53.9" fill="#ffac9c" stroke="#000" stroke-linecap="round" stroke-linejoin="round" stroke-miterlimit="10" stroke-width="10"/><path fill="none" stroke="#fff" stroke-linecap="round" stroke-linejoin="round" stroke-miterlimit="10" stroke-width="7" d="M500.3,463.2c7.7-4.8,17.6-8.9,28.6-8.2"/></g><g><circle cx="607.6" cy="463.2" r="43" fill="#ffac9c" stroke="#000" stroke-linecap="round" stroke-linejoin="round" stroke-miterlimit="10" stroke-width="10"/><path fill="none" stroke="#fff" stroke-linecap="round" stroke-linejoin="round" stroke-miterlimit="10" stroke-width="7" d="M603.1,433.7c7.3-0.2,15.7,1,23,5.9"/></g><g><circle cx="409.1" cy="483.2" r="67" fill="#ffac9c" stroke="#000" stroke-linecap="round" stroke-linejoin="round" stroke-miterlimit="10" stroke-width="10"/><path fill="none" stroke="#fff" stroke-linecap="round" stroke-linejoin="round" stroke-miterlimit="10" stroke-width="7" d="M370.5,456.9c7.5-8.5,17.8-16.9,31.2-20"/></g><g><path fill="#14143f" stroke="#000" stroke-linecap="round" stroke-linejoin="round" stroke-miterlimit="10" stroke-width="10" d="M837.2 860.5l-38.9 10.8c-7.9 2.2-16.2.4-21.8-4.7l-42.8-39 51-30.9c8.5-5.1 19.4-4.7 26.8 1l35.2 27.3C860.1 835.3 854.6 855.6 837.2 860.5zM437.2 967.5l39.1-10.1c7.9-2 14.2-7.8 16.5-15l17.6-55.2-59.6-1.3c-9.9-.2-19.1 5.6-22.7 14.2l-16.9 41.2C404.8 957 419.7 972 437.2 967.5z"/><path fill="#2d2d7f" stroke="#000" stroke-linecap="round" stroke-linejoin="round" stroke-miterlimit="10" stroke-width="10" d="M782.4,808.2c-95.5,75.7-218.1,108.5-341.4,92.1c-49.7-6.6-89.7-38.6-104.5-82.1
			c-24.8-73.4,1.1-166.2,30-263.9l306.9-82.1c88,63.7,155,141.2,161.1,226.2C837.5,739.6,817.7,780.2,782.4,808.2z"/><path fill="#5656b7" stroke="#000" stroke-miterlimit="10" stroke-width="10" d="M692.1,492.2l-328.8,87.9c-10.4,2.8-21.1-3.4-23.9-13.8l0,0c-2.8-10.4,3.4-21.1,13.8-23.9L682,454.4
			c10.4-2.8,21.1,3.4,23.9,13.8v0C708.7,478.7,702.5,489.4,692.1,492.2z"/><ellipse cx="478" cy="645.5" fill="#f2f2f2" stroke="#000" stroke-linecap="round" stroke-linejoin="round" stroke-miterlimit="10" stroke-width="10" rx="65" ry="65.6" transform="rotate(-14.976 478.022 645.575)"/><ellipse cx="478" cy="645.5" rx="39.9" ry="40.3" transform="rotate(-14.976 478.022 645.575)"/><ellipse cx="640.4" cy="602.1" fill="#f2f2f2" stroke="#000" stroke-linecap="round" stroke-linejoin="round" stroke-miterlimit="10" stroke-width="10" rx="65" ry="65.6" transform="rotate(-14.976 640.451 602.124)"/><ellipse cx="640.4" cy="602.1" rx="39.9" ry="40.3" transform="rotate(-14.976 640.451 602.124)"/><path fill="none" stroke="#000" stroke-linecap="round" stroke-linejoin="round" stroke-miterlimit="10" stroke-width="10" d="M435.2,807c0,0,138.5-99.3,312.1-131.9"/></g></svg>