<svg xmlns="http://www.w3.org/2000/svg" viewBox="0 0 3798.639 3903.29"><path fill="#79a1e8" d="M3073.992 1685.168c773.062 670.434-871.137 1939.248-1600.16 1221.173C520.104 1966.937 0 2666.34 0 1643.058S141.194 880.731 1221.175 421.885c941.804-400.14 925.492 459.066 1852.817 1263.283z"/><path fill="#d7ecf9" d="M1662.141 1421.104c184.172 0 333.472-149.301 333.472-333.473l-.001-1056.851 1772.244-.001.001 1056.851c0 184.172-149.301 333.473-333.472 333.473l-1772.244.001zM1662.141 1421.104h-.001z"/><path fill="#aacfe2" d="M3767.857 30.779H3436.47L2046.146 1421.104l1388.24-.001c184.172 0 333.472-149.301 333.472-333.472l-.001-1056.852z"/><path fill="#f7931e" d="m2922.635 1732.482-511.593-489.364v107.989l381.918 381.375z"/><ellipse cx="1632.611" cy="3832.226" fill="#473cba" rx="1301.734" ry="71.064"/><path fill="#e1f0fa" d="M2792.96 1732.482v1729.506H401.165V1732.482"/><path fill="#79a1e8" d="M2792.96 1732.482h129.676v1729.506H2792.96z"/><path fill="#fff" d="m401.165 3461.988 1181.489-948.092 1210.306 948.092z"/><path fill="#f9d015" d="M2792.96 1732.71 1611.471 578.514 401.165 1732.39l.001.092 1181.488 1141.624L2792.96 1732.482z"/><path fill="#f7931e" d="M1995.613 30.781h1772.245v232.95H1995.613z"/><path fill="#f15a24" d="M3767.858 30.78h-331.389l-232.95 232.951h564.339z"/><path fill="#473cba" d="M2757.573 533.005c184.172 0 333.472 149.301 333.472 333.472v221.126c0 184.172 149.301 333.473 333.472 333.473H2208.412V535.525l549.161-2.52z"/><path fill="#fff" d="M1026.466 533.005c-184.172 0-333.472 149.301-333.472 333.472v1147.986l889.661 859.643L2424.1 2080.41V866.477c0-184.172 149.301-333.472 333.472-333.472H1026.466z"/><path fill="#cfddf7" d="M2344.309 533.005 779.38 2097.934l803.275 776.171 841.446-793.696V866.477c0-184.172 149.301-333.472 333.472-333.472h-413.264z"/><path fill="#4b31aa" d="M380.414 1711.665a32.638 32.638 0 0 0-10.029 23.54v1726.783c0 .115.027.223.034.336.073 6.823 2.278 13.76 7.513 19.749 6.199 7.092 15.507 10.694 24.926 10.694h2519.775c16.999 0 30.779-13.78 30.779-30.779V1732.484c0-8.651-3.595-16.44-9.341-22.032-.068-.069-.093-.141-.164-.21l-270.122-258.385 760.599.026c201.173 0 364.256-163.083 364.256-364.256V30.779C3798.64 13.78 3784.86 0 3767.861 0H1995.61c-16.999 0-30.779 13.78-30.779 30.779v471.447h-938.365c-201.171 0-364.253 163.081-364.253 364.253v574.507l-281.799 270.679zm343.357-845.186c0-166.908 135.786-302.694 302.694-302.694l1527.373.935c-96.76 65.546-160.518 176.339-160.518 301.759V2067.13l-810.413 764.424L723.771 2001.4V866.479zm1731.108 585.377h6.546l286.976 280.346-293.523 276.865v-557.211zm-1792.666 74.18v415.882l-216.646-209.337 216.646-206.545zm-230.27 278.98 900.539 870.163-900.539 722.643V1805.016zM488.7 3431.208l888.407-712.91 184.16 177.948a30.702 30.702 0 0 0 21.386 8.642 30.708 30.708 0 0 0 21.119-8.386l189.369-178.623 910.618 713.33H488.7zm1349.728-756.048 923.755-871.338V3398.78l-923.755-723.62zm1053.425 756.048h-68.111V1763.263h68.111v1667.945zm-45.928-1729.504H2805.7l-250.205-249.849h29.235l261.195 249.849zm-359.424-311.407-31.621-30.891V866.479c0-166.902 135.776-302.683 302.672-302.694h.101c166.866.049 302.615 135.82 302.615 302.694v221.125c0 125.995 64.316 237.266 161.824 302.694h-735.591zm1250.58-302.668c0 166.908-135.786 302.694-302.698 302.694h-9.606c-.089-.001-.172-.026-.261-.026-166.904 0-302.69-135.786-302.69-302.694V866.479c0-200.851-163.402-364.253-364.256-364.253H2026.39V294.511h1710.691v793.118zm0-854.677H2026.389V61.559H3737.08v171.393z"/><path fill="#f9d015" d="M951.109 973.624h1192.697v368.206H951.109z"/><path fill="#ddb510" d="M1535.484 1341.83h608.321V973.624H1903.69z"/><path fill="#4b31aa" d="M2143.803 1372.608H951.11c-16.998 0-30.779-13.781-30.779-30.779V973.624c0-16.998 13.782-30.779 30.779-30.779h1192.693c16.998 0 30.779 13.781 30.779 30.779v368.205c0 16.998-13.781 30.779-30.779 30.779zM981.889 1311.05h1131.134v-306.647H981.889v306.647z"/><path fill="#d7ecf9" d="M951.109 1543.405h1192.696"/><path fill="#4b31aa" d="M2143.803 1574.184H951.11c-16.998 0-30.779-13.782-30.779-30.779 0-16.998 13.782-30.779 30.779-30.779h1192.693c16.998 0 30.779 13.781 30.779 30.779 0 16.997-13.781 30.779-30.779 30.779z"/><path fill="#d7ecf9" d="M951.109 1749.092h1192.696"/><path fill="#4b31aa" d="M2143.803 1779.873H951.11c-16.998 0-30.779-13.781-30.779-30.779 0-16.998 13.782-30.779 30.779-30.779h1192.693c16.998 0 30.779 13.781 30.779 30.779 0 16.998-13.781 30.779-30.779 30.779z"/><path fill="#d7ecf9" d="M951.109 1954.78h1192.696"/><path fill="#4b31aa" d="M2143.803 1985.559H951.11c-16.998 0-30.779-13.781-30.779-30.779 0-16.998 13.782-30.779 30.779-30.779h1192.693c16.998 0 30.779 13.781 30.779 30.779 0 16.998-13.781 30.779-30.779 30.779z"/></svg>