<svg xmlns="http://www.w3.org/2000/svg" xmlns:xlink="http://www.w3.org/1999/xlink" width="200" height="200"><path fill="#F77B55" d="M56.297 18.188c-24.527 0-44.889 17.802-48.89 41.188 4 23.39 24.363 41.191 48.89 41.191 24.529 0 44.883-17.801 48.891-41.191-4.007-23.386-24.362-41.188-48.891-41.188z"/><defs><path id="a" d="M56.297 35.63c-20.295 0-38.016 9.555-47.493 23.742 9.477 14.196 27.198 23.751 47.493 23.751 20.288 0 38.016-9.555 47.499-23.751C94.313 45.186 76.585 35.63 56.297 35.63z"/></defs><use fill="#FFF" overflow="visible" xlink:href="#a"/><clipPath id="b"><use overflow="visible" xlink:href="#a"/></clipPath><g clip-path="url(#b)"><path fill="#92DEEB" d="M56.297 26.74c-16.132 0-29.223 13.086-29.223 29.223 0 16.141 13.091 29.213 29.223 29.213 16.137 0 29.221-13.072 29.221-29.213.001-16.137-13.083-29.223-29.221-29.223z"/><path fill="#232E38" d="M56.297 40.718c-8.408 0-15.241 6.831-15.241 15.245 0 8.412 6.833 15.251 15.241 15.251 8.414 0 15.246-6.839 15.246-15.251 0-8.414-6.832-15.245-15.246-15.245z"/><path fill="#FFF" d="M54.663 48.552c1.33 1.322 1.112 3.692-.494 5.288-1.589 1.594-3.961 1.821-5.283.496-1.328-1.326-1.106-3.69.497-5.296 1.591-1.594 3.953-1.819 5.28-.488zm-6.97-13.232c2.76 2.752 2.31 7.689-1.039 11.009-3.305 3.316-8.246 3.788-10.997 1.035-2.762-2.759-2.304-7.684 1.032-11.028 3.318-3.314 8.233-3.788 11.004-1.016z"/></g><g fill="#232E38"><path d="M56.297 101.587c-24.745 0-45.728-17.68-49.895-42.039a.994.994 0 0 1 0-.344c4.167-24.357 25.15-42.035 49.895-42.035 24.737 0 45.722 17.678 49.896 42.035.019.114.019.23 0 .344-4.173 24.359-25.157 42.039-49.896 42.039zM8.442 59.375c4.067 23.289 24.165 40.172 47.855 40.172 23.684 0 43.782-16.884 47.855-40.172-4.073-23.285-24.172-40.168-47.855-40.168-23.69 0-43.788 16.883-47.855 40.168z"/><path d="M56.297 84.143c-19.852 0-38.375-9.274-48.341-24.205a1.022 1.022 0 0 1 0-1.132c9.97-14.925 28.493-24.195 48.341-24.195 19.846 0 38.371 9.27 48.347 24.194.228.343.228.791 0 1.133-9.973 14.931-28.498 24.205-48.347 24.205zm-46.26-24.771c9.681 14.039 27.334 22.732 46.26 22.732 18.923 0 36.58-8.693 46.266-22.732C92.874 45.339 75.219 36.65 56.297 36.65c-18.923 0-36.577 8.689-46.26 22.722z"/><path d="M42.159 82.539c-.173 0-.354-.043-.505-.128a30.252 30.252 0 0 1-15.604-26.45c0-5.53 1.507-10.936 4.36-15.63a1.02 1.02 0 1 1 1.743 1.059 28.058 28.058 0 0 0-4.064 14.571 28.21 28.21 0 0 0 14.522 24.648c.333.168.563.513.563.91a1.016 1.016 0 0 1-1.015 1.02zm28.301.001a1.02 1.02 0 0 1-.496-1.912 28.218 28.218 0 0 0 14.53-24.667 28.13 28.13 0 0 0-4.062-14.584 1.019 1.019 0 1 1 1.743-1.057 30.155 30.155 0 0 1 4.357 15.641 30.253 30.253 0 0 1-15.58 26.45 1.002 1.002 0 0 1-.492.129zM56.298 72.235c-8.968 0-16.263-7.301-16.263-16.274 0-2.724.661-5.331 1.966-7.749a1.02 1.02 0 1 1 1.795.97 14.123 14.123 0 0 0-1.722 6.778c0 7.849 6.381 14.236 14.224 14.236S70.523 63.81 70.523 55.96c0-7.843-6.382-14.226-14.225-14.226-2.383 0-4.663.58-6.777 1.725a1.023 1.023 0 0 1-1.383-.412 1.022 1.022 0 0 1 .413-1.383 16.12 16.12 0 0 1 7.747-1.968c8.968 0 16.264 7.296 16.264 16.264.001 8.974-7.295 16.275-16.264 16.275z"/><path d="M40.233 50.172c-2.035 0-3.927-.722-5.296-2.093-2.19-2.178-2.719-5.693-1.346-8.954a1.017 1.017 0 0 1 1.336-.543c.519.218.763.817.543 1.336-1.064 2.528-.716 5.103.908 6.718 1.475 1.478 3.845 1.897 6.191 1.095 1.231-.415 2.395-1.148 3.369-2.121.979-.98 1.715-2.147 2.132-3.375.69-2.034.492-4.046-.545-5.52a1.02 1.02 0 0 1 1.669-1.174c1.416 2.014 1.709 4.692.808 7.349-.516 1.522-1.422 2.961-2.621 4.163-1.196 1.194-2.633 2.096-4.156 2.61a9.271 9.271 0 0 1-2.992.509z"/></g><path fill="#232E38" d="M56.301 125.984c-5.417 0-9.822-4.409-9.822-9.828 0-5.417 4.406-9.822 9.822-9.822 5.418 0 9.826 4.405 9.826 9.822-.001 5.419-4.408 9.828-9.826 9.828zm0-17.611c-4.292 0-7.784 3.491-7.784 7.783 0 4.294 3.492 7.789 7.784 7.789 4.293 0 7.787-3.495 7.787-7.789 0-4.292-3.494-7.783-7.787-7.783z"/><path fill="#92DEEB" d="M92.484 162.804c0 19.982-16.2 36.182-36.184 36.182-19.98 0-36.183-16.199-36.183-36.182S36.319 126.62 56.3 126.62c19.985 0 36.184 16.2 36.184 36.184z"/><path fill="#92DEEB" d="M53.29 120.713h6.028v6.031H53.29zM51.477 115.892h9.648v4.821h-9.648zM83.71 139.21l-3.813-3.808 2.34-2.342 3.812 3.808zM81.487 132.293l4.376-4.377 5.332 5.33-4.376 4.378z"/><g fill="#92DEEB"><path d="m26.54 136.873 3.811-3.807 2.34 2.341-3.813 3.808z"/><path d="m25.787 137.632-4.376-4.377 5.332-5.33 4.376 4.377z"/></g><circle cx="56.302" cy="162.804" r="31.961" fill="#FFF"/><path fill="#F77B55" d="M56.302 130.843v31.961l22.602 22.6c5.782-5.782 9.359-13.775 9.359-22.6 0-17.652-14.309-31.961-31.961-31.961z"/><g fill="#232E38"><path d="M32.593 136.511a1.018 1.018 0 0 1-.67-1.788c6.066-5.285 13.507-8.396 21.519-8.995a1.02 1.02 0 0 1 .152 2.034c-7.57.565-14.6 3.504-20.331 8.498a1.013 1.013 0 0 1-.67.251zM56.302 200c-20.514 0-37.203-16.684-37.203-37.19a37.122 37.122 0 0 1 9.018-24.268l.795.642.755.685-.023.026a35.066 35.066 0 0 0-8.506 22.915c0 19.382 15.775 35.151 35.164 35.151 19.389 0 35.165-15.77 35.165-35.151a35.084 35.084 0 0 0-8.524-22.934 1.037 1.037 0 0 1 .074-1.435 1.008 1.008 0 0 1 1.412.037 37.16 37.16 0 0 1 9.077 24.331C93.505 183.316 76.815 200 56.302 200zm23.623-63.56c-.27 0-.538-.105-.738-.316l-.023-.024a34.639 34.639 0 0 0-20.154-8.338 1.02 1.02 0 0 1-.942-1.092c.042-.563.537-.995 1.092-.942 7.943.587 15.345 3.664 21.409 8.896.024.022.073.069.095.094a1.018 1.018 0 0 1-.739 1.722z"/><path d="M59.318 127.764H53.29a1.02 1.02 0 0 1-1.02-1.02v-6.031c0-.563.456-1.02 1.02-1.02h6.028c.563 0 1.019.456 1.019 1.02v6.031c0 .565-.456 1.02-1.019 1.02zm-5.009-2.038h3.989v-3.993h-3.989v3.993z"/><path d="M61.125 121.732h-9.648a1.02 1.02 0 0 1-1.02-1.02v-4.821c0-.563.456-1.02 1.02-1.02h9.648c.564 0 1.02.456 1.02 1.02v4.821a1.02 1.02 0 0 1-1.02 1.02zm-8.629-2.039h7.61v-2.782h-7.61v2.782zm31.222 20.536c-.261 0-.521-.099-.721-.298l-3.811-3.808a1.018 1.018 0 0 1 0-1.443l2.343-2.344a1.017 1.017 0 0 1 1.443 0l3.809 3.812a1.02 1.02 0 0 1-.001 1.442l-2.341 2.34c-.2.199-.46.299-.721.299zm-2.369-4.828 2.369 2.366.899-.898-2.367-2.369-.901.901z"/><path d="M86.818 138.648c-.271 0-.53-.106-.722-.299l-5.33-5.332a1.02 1.02 0 0 1 0-1.441l4.376-4.377a1.02 1.02 0 0 1 .722-.299c.271 0 .531.106.722.299l5.33 5.335a1.02 1.02 0 0 1-.001 1.442l-4.376 4.375c-.191.191-.45.297-.721.297zm-3.887-6.351 3.888 3.891 2.934-2.933-3.888-3.893-2.934 2.935zM28.885 140.229c-.261 0-.521-.1-.721-.298l-2.341-2.34a1.02 1.02 0 0 1-.001-1.442l3.809-3.812c.385-.384 1.061-.384 1.442 0l2.344 2.344c.192.19.298.449.298.721 0 .271-.106.53-.298.722l-3.812 3.808a1.017 1.017 0 0 1-.72.297zm-.899-3.36.899.898 2.369-2.366-.901-.901-2.367 2.369z"/><path d="M25.785 138.648c-.271 0-.53-.106-.721-.297l-4.376-4.375a1.02 1.02 0 0 1-.001-1.442l5.33-5.335c.382-.385 1.059-.385 1.443 0l4.376 4.377a1.02 1.02 0 0 1 0 1.441l-5.33 5.332a1.015 1.015 0 0 1-.721.299zm-2.934-5.393 2.934 2.933 3.887-3.891-2.934-2.935-3.887 3.893zM56.301 195.783c-18.186 0-32.979-14.794-32.979-32.979s14.793-32.979 32.979-32.979c18.187 0 32.981 14.794 32.981 32.979s-14.795 32.979-32.981 32.979zm0-63.921c-17.061 0-30.94 13.881-30.94 30.941 0 17.062 13.879 30.94 30.94 30.94 17.062 0 30.943-13.879 30.943-30.94 0-17.06-13.881-30.941-30.943-30.941z"/><path d="M78.903 186.423c-.261 0-.521-.1-.72-.299l-22.602-22.6a1.013 1.013 0 0 1-.298-.721v-31.961c0-.563.456-1.019 1.019-1.019 18.186 0 32.98 14.794 32.98 32.979 0 8.811-3.43 17.093-9.658 23.32a1.007 1.007 0 0 1-.721.301zm-21.582-24.042 21.57 21.568c5.394-5.752 8.352-13.221 8.352-21.146 0-16.72-13.332-30.384-29.922-30.924v30.502z"/></g><path fill="#FFF" d="M60.483 162.804a4.18 4.18 0 0 1-4.183 4.182 4.18 4.18 0 0 1-4.182-4.182 4.18 4.18 0 0 1 4.182-4.183 4.178 4.178 0 0 1 4.183 4.183z"/><path fill="#232E38" d="M56.301 168.005c-2.868 0-5.201-2.333-5.201-5.201s2.333-5.202 5.201-5.202 5.202 2.334 5.202 5.202-2.334 5.201-5.202 5.201zm0-8.364c-1.744 0-3.163 1.419-3.163 3.163s1.419 3.163 3.163 3.163c1.745 0 3.164-1.419 3.164-3.163s-1.42-3.163-3.164-3.163z"/><path fill="#232E38" d="M53.343 160.863c-.261 0-.521-.1-.72-.297l-5.039-5.037a1.02 1.02 0 0 1-.001-1.442 1.022 1.022 0 0 1 1.442-.001l5.038 5.037a1.02 1.02 0 0 1-.72 1.74z"/><path fill="#FFF" d="M128.631 116.438h11.211v13.41h-11.211z"/><circle cx="134.237" cy="59.375" r="58.356" fill="#FFF"/><path fill="#92DEEB" d="M180.921 59.375c0 25.789-20.896 46.687-46.685 46.687S87.55 85.164 87.55 59.375c0-25.787 20.898-46.684 46.686-46.684s46.685 20.897 46.685 46.684z"/><path fill="#F77B55" d="M123.186 141.52h22.1v57.461h-22.1zM121.346 129.848h25.781v11.672h-25.781z"/><g fill="#232E38"><path d="M139.842 130.865h-11.211a1.02 1.02 0 0 1-1.02-1.02v-12.486a1.02 1.02 0 0 1 2.04 0v11.468h9.172v-11.468a1.02 1.02 0 0 1 2.04 0v12.486a1.021 1.021 0 0 1-1.021 1.02z"/><path d="M134.236 118.752c-32.739 0-59.375-26.636-59.375-59.376C74.861 26.636 101.497 0 134.236 0c32.741 0 59.376 26.636 59.376 59.375 0 32.741-26.634 59.377-59.376 59.377zm0-116.713C102.622 2.039 76.9 27.76 76.9 59.375c0 31.616 25.722 57.337 57.336 57.337 31.616 0 57.337-25.722 57.337-57.337 0-31.615-25.72-57.336-57.337-57.336z"/><path d="M134.236 107.082c-26.304 0-47.705-21.401-47.705-47.707 0-26.304 21.401-47.703 47.705-47.703s47.703 21.399 47.703 47.703c0 26.306-21.399 47.707-47.703 47.707zm0-93.371c-25.18 0-45.667 20.485-45.667 45.665 0 25.181 20.487 45.667 45.667 45.667s45.665-20.487 45.665-45.667c0-25.18-20.485-45.665-45.665-45.665zM145.285 200h-22.1a1.02 1.02 0 0 1-1.02-1.02v-57.46c0-.563.457-1.02 1.02-1.02h22.1c.564 0 1.02.456 1.02 1.02v57.461c0 .563-.455 1.019-1.02 1.019zm-21.081-2.039h20.062v-55.422h-20.062v55.422z"/><path d="M147.127 142.539h-25.781a1.02 1.02 0 0 1-1.02-1.02v-11.672c0-.564.455-1.02 1.02-1.02h25.781c.564 0 1.02.455 1.02 1.02v11.672a1.02 1.02 0 0 1-1.02 1.02zm-24.762-2.039h23.742v-9.634h-23.742v9.634z"/></g><path fill="#FFF" d="M167.486 63.066v-7.384h-5.835a27.32 27.32 0 0 0-1.818-6.82l5.04-2.914-3.688-6.392-5.05 2.914a27.566 27.566 0 0 0-4.993-4.992l2.912-5.054-6.39-3.691-2.908 5.044a27.253 27.253 0 0 0-6.831-1.826v-5.826h-7.379v5.827a27.298 27.298 0 0 0-6.826 1.824l-2.915-5.044-6.391 3.691 2.913 5.052a27.748 27.748 0 0 0-4.989 4.994l-5.05-2.914-3.691 6.392 5.043 2.912a27.125 27.125 0 0 0-1.82 6.823h-5.832v7.384h5.829a27.322 27.322 0 0 0 1.826 6.831l-5.046 2.908 3.691 6.391 5.05-2.914a27.808 27.808 0 0 0 4.996 4.992l-2.915 5.055 6.386 3.688 2.915-5.048a27.31 27.31 0 0 0 6.826 1.822v5.833h7.379v-5.833a27.3 27.3 0 0 0 6.828-1.821l2.911 5.046 6.39-3.688-2.915-5.057a27.642 27.642 0 0 0 4.999-4.994l5.047 2.917 3.693-6.391-5.045-2.911a27.458 27.458 0 0 0 1.82-6.829h5.833zm-33.25 14.412c-9.997 0-18.103-8.105-18.103-18.103 0-9.997 8.105-18.1 18.103-18.1s18.1 8.103 18.1 18.1c0 9.998-8.103 18.103-18.1 18.103z"/><path fill="#232E38" d="M137.925 93.645h-7.379c-.565 0-1.02-.456-1.02-1.02v-4.954a28.202 28.202 0 0 1-5.361-1.431l-2.478 4.287a1.029 1.029 0 0 1-.618.476 1.011 1.011 0 0 1-.773-.102l-6.386-3.688a1.022 1.022 0 0 1-.375-1.393l2.477-4.295a28.963 28.963 0 0 1-3.925-3.92l-4.288 2.476a1.02 1.02 0 0 1-1.395-.374l-3.69-6.392a1.015 1.015 0 0 1 .372-1.393l4.284-2.469a28.473 28.473 0 0 1-1.432-5.367h-4.951a1.02 1.02 0 0 1-1.02-1.02v-7.384c0-.563.456-1.02 1.02-1.02h4.951a28.219 28.219 0 0 1 1.432-5.359l-4.284-2.472c-.234-.136-.405-.359-.476-.62s-.032-.539.104-.773l3.69-6.391a1.023 1.023 0 0 1 1.395-.374l4.288 2.476a28.812 28.812 0 0 1 3.918-3.922l-2.475-4.293a1.022 1.022 0 0 1 .375-1.393l6.391-3.691a1.019 1.019 0 0 1 1.392.374l2.475 4.282a28.438 28.438 0 0 1 5.364-1.432v-4.948c0-.563.454-1.019 1.02-1.019h7.379c.564 0 1.02.456 1.02 1.019v4.947c1.839.303 3.637.783 5.366 1.433l2.47-4.282a1.023 1.023 0 0 1 1.394-.374l6.39 3.691c.488.282.654.904.373 1.393l-2.475 4.293a28.623 28.623 0 0 1 3.923 3.922l4.288-2.476a1.02 1.02 0 0 1 1.394.374l3.688 6.391a1.022 1.022 0 0 1-.373 1.394l-4.281 2.473a28.259 28.259 0 0 1 1.428 5.358h4.956c.563 0 1.02.456 1.02 1.02v7.384a1.02 1.02 0 0 1-1.02 1.02h-4.954a28.428 28.428 0 0 1-1.43 5.365l4.284 2.471a1.022 1.022 0 0 1 .375 1.393l-3.693 6.392a1.026 1.026 0 0 1-.621.476 1.009 1.009 0 0 1-.773-.102l-4.286-2.479a28.659 28.659 0 0 1-3.927 3.923l2.477 4.296a1.02 1.02 0 0 1-.373 1.393l-6.39 3.688a1.021 1.021 0 0 1-1.394-.374l-2.473-4.286a28.426 28.426 0 0 1-5.363 1.431v4.953a1.02 1.02 0 0 1-1.021 1.018zm-6.361-2.039h5.341v-4.813c0-.512.38-.944.886-1.011a26.37 26.37 0 0 0 6.573-1.753 1.022 1.022 0 0 1 1.272.434l2.402 4.163 4.623-2.669-2.406-4.174a1.017 1.017 0 0 1 .262-1.317 26.662 26.662 0 0 0 4.813-4.81 1.023 1.023 0 0 1 1.317-.26l4.164 2.408 2.671-4.625-4.161-2.401a1.02 1.02 0 0 1-.434-1.272 26.427 26.427 0 0 0 1.753-6.574 1.02 1.02 0 0 1 1.012-.884h4.813v-5.345h-4.815a1.02 1.02 0 0 1-1.01-.885 26.438 26.438 0 0 0-1.751-6.566 1.016 1.016 0 0 1 .432-1.272l4.156-2.403-2.669-4.625-4.164 2.404a1.018 1.018 0 0 1-1.316-.26 26.731 26.731 0 0 0-4.809-4.809 1.019 1.019 0 0 1-.263-1.317l2.404-4.17-4.623-2.671-2.4 4.161a1.025 1.025 0 0 1-1.272.433 26.299 26.299 0 0 0-6.575-1.757 1.022 1.022 0 0 1-.886-1.011v-4.806h-5.341v4.808c0 .511-.379.943-.886 1.011a26.354 26.354 0 0 0-6.57 1.756 1.02 1.02 0 0 1-1.272-.433l-2.404-4.161-4.626 2.671 2.404 4.168a1.017 1.017 0 0 1-.258 1.316 26.84 26.84 0 0 0-4.809 4.811 1.019 1.019 0 0 1-1.316.26l-4.167-2.404-2.671 4.625 4.161 2.402c.443.255.629.8.432 1.272a26.283 26.283 0 0 0-1.753 6.567 1.018 1.018 0 0 1-1.01.886h-4.813v5.345h4.811c.512 0 .944.378 1.013.886a26.33 26.33 0 0 0 1.755 6.575c.195.474.01 1.017-.434 1.272l-4.161 2.398 2.671 4.625 4.167-2.404a1.021 1.021 0 0 1 1.316.259 26.955 26.955 0 0 0 4.813 4.81c.403.313.516.875.26 1.317l-2.406 4.171 4.621 2.669 2.404-4.164a1.02 1.02 0 0 1 1.272-.434 26.333 26.333 0 0 0 6.57 1.754c.507.068.886.5.886 1.011v4.812zm2.672-13.108c-10.543 0-19.122-8.578-19.122-19.122 0-10.542 8.579-19.119 19.122-19.119s19.119 8.577 19.119 19.119c0 10.543-8.576 19.122-19.119 19.122zm0-36.203c-9.418 0-17.083 7.663-17.083 17.081 0 9.419 7.665 17.083 17.083 17.083s17.081-7.664 17.081-17.083c0-9.418-7.663-17.081-17.081-17.081z"/></svg>