<svg xmlns="http://www.w3.org/2000/svg" viewBox="0 0 32 32"><path fill="#bf0" fill-rule="evenodd" d="M10.641 18.238c-.17.011-.341.016-.514.016a8.127 8.127 0 1 1 8.127-8.127c0 .173-.005.344-.016.514a5.737 5.737 0 1 1-7.6 7.6Z"/><path fill-rule="evenodd" d="M31 23V9a8 8 0 0 0-8-8H9a8 8 0 0 0-8 8v14a8 8 0 0 0 8 8h14a1 1 0 0 0 0-2H9a6 6 0 0 1-6-6V9a6 6 0 0 1 6-6h14a6 6 0 0 1 6 6v14a1 1 0 0 0 2 0Z"/><path fill-rule="evenodd" d="M14.833 7.667a7.166 7.166 0 1 1-7.166 7.166 7.17 7.17 0 0 1 7.166-7.166Zm5.735 14.316 8.725 8.724a1 1 0 1 0 1.414-1.414l-8.724-8.725a9.17 9.17 0 1 0-1.415 1.415Z"/></svg>